<?xml version="1.0" encoding="utf-8"?><svg viewBox="0 0 40 40" xmlns="http://www.w3.org/2000/svg" xmlns:xlink="http://www.w3.org/1999/xlink"><style>:root>svg{display:none}:root>svg:target{display:block}</style><svg viewBox="0 0 40 40" id="facebook" xmlns="http://www.w3.org/2000/svg"><path d="M20 0C8.972 0 0 8.972 0 20c0 11.027 8.972 20 20 20 11.027 0 20-8.973 20-20C40 8.972 31.029 0 20 0Z" fill="currentColor"/><path d="M22.113 19.616h3.254l.422-4.098h-3.674v-2.409c0-.905.6-1.116 1.022-1.116h2.594v-3.98L22.158 8c-3.964 0-4.866 2.967-4.866 4.866v2.651H15v4.099h2.292v11.598h4.821V19.616Z" fill="#fff"/></svg><svg fill="none" viewBox="0 0 40 40" id="instagram" xmlns="http://www.w3.org/2000/svg"><path d="M20 0a20 20 0 1 0 0 40 20 20 0 0 0 0-40Z" fill="currentColor"/><g fill="#fff"><path d="M30.978 15.468c-.051-1.169-.24-1.973-.511-2.669a5.39 5.39 0 0 0-1.272-1.951 5.415 5.415 0 0 0-1.947-1.268c-.7-.27-1.5-.46-2.669-.511C23.401 9.013 23.028 9 20.041 9s-3.361.013-4.534.064c-1.17.052-1.973.241-2.67.512-.739.28-1.4.709-1.95 1.272a5.417 5.417 0 0 0-1.268 1.947c-.271.7-.46 1.5-.512 2.669-.055 1.177-.068 1.551-.068 4.538s.013 3.36.064 4.534c.052 1.17.24 1.973.512 2.67.279.738.713 1.4 1.272 1.95.55.559 1.216.993 1.947 1.268.7.27 1.5.46 2.668.512 1.174.051 1.548.064 4.534.064 2.987 0 3.361-.013 4.535-.064 1.169-.052 1.972-.241 2.668-.512a5.627 5.627 0 0 0 3.22-3.219c.27-.7.46-1.5.51-2.669.052-1.173.065-1.547.065-4.534s-.004-3.36-.056-4.534Zm-1.98 8.982c-.048 1.075-.229 1.655-.379 2.042a3.65 3.65 0 0 1-2.089 2.088c-.387.15-.97.331-2.041.379-1.16.051-1.509.064-4.444.064s-3.288-.013-4.444-.064c-1.074-.048-1.655-.228-2.041-.378a3.386 3.386 0 0 1-1.264-.822 3.42 3.42 0 0 1-.82-1.263c-.151-.387-.332-.971-.379-2.041-.051-1.16-.064-1.509-.064-4.444 0-2.936.013-3.288.064-4.444.048-1.075.228-1.655.378-2.042.177-.477.456-.91.826-1.263a3.416 3.416 0 0 1 1.263-.82c.387-.151.972-.332 2.041-.38 1.16-.05 1.51-.064 4.444-.064 2.94 0 3.288.013 4.444.065 1.075.047 1.655.228 2.042.378.477.176.91.456 1.263.82.365.358.645.787.821 1.264.15.387.33.972.378 2.042.052 1.16.065 1.508.065 4.444 0 2.935-.013 3.279-.065 4.44Z"/><path d="M20.04 14.35a5.653 5.653 0 0 0-5.65 5.652 5.653 5.653 0 0 0 5.65 5.652 5.653 5.653 0 0 0 5.652-5.652 5.653 5.653 0 0 0-5.651-5.651Zm0 9.318a3.667 3.667 0 1 1 .002-7.333 3.667 3.667 0 0 1-.001 7.333Zm7.195-9.541a1.32 1.32 0 1 1-2.639 0 1.32 1.32 0 0 1 2.64 0Z"/></g></svg><svg fill="none" viewBox="0 0 40 40" id="linkedin" xmlns="http://www.w3.org/2000/svg"><path d="M34.545 0H5.455A5.455 5.455 0 0 0 0 5.455v29.09A5.454 5.454 0 0 0 5.455 40h29.09A5.455 5.455 0 0 0 40 34.545V5.455A5.455 5.455 0 0 0 34.545 0Z" fill="currentColor"/><path d="M13.573 31.978a.844.844 0 0 0 .063-.324V16.591a.845.845 0 0 0-.843-.846H9.2a.845.845 0 0 0-.845.846v15.063a.843.843 0 0 0 .845.846h3.593a.843.843 0 0 0 .78-.522ZM9.102 13.744a3.41 3.41 0 1 0 3.788-5.67 3.41 3.41 0 0 0-3.788 5.67ZM32.36 32.011a.776.776 0 0 0 .058-.297l-.004-7.282v-.062c0-3.181 0-8.875-6.137-8.875-2.788 0-4.095 1.019-4.977 2.344v-1.314a.777.777 0 0 0-.777-.777H16.79a.774.774 0 0 0-.775.777v15.198a.775.775 0 0 0 .775.777h3.732a.777.777 0 0 0 .766-.777v-8.15c.095-1.096.58-3.534 2.954-3.534 3.066 0 2.757 3.563 2.757 4.618v7.057a.776.776 0 0 0 .777.777h3.864a.776.776 0 0 0 .719-.48Z" fill="#fff"/></svg></svg>